<svg xmlns="http://www.w3.org/2000/svg" xmlns:xlink="http://www.w3.org/1999/xlink" width="32" height="32" version="1.1" x="0px" y="0px" viewBox="0 0 100 125" enable-background="new 0 0 100 100" xml:space="preserve">
<path d="M72.825,97.439L62.234,79.797v-4.25H60.25c-0.597-1.834-3.203-9.893-3.963-13.271h0.782v-4.17h-1.82  c-0.423-4.131-3.366-33.21-3.279-42.153c0.687-1.021,0.964-1.314,0.964-1.314l0.104-0.103l0.038-0.142  c0.365-1.383,0.276-4.369-2.628-5.856L50,2.561l-0.447,5.977c-2.904,1.487-2.993,4.473-2.628,5.856l0.04,0.14l0.098,0.101  c0.002,0.003,0.279,0.296,0.968,1.318c0.087,8.942-2.856,38.022-3.279,42.153h-1.82v4.17h0.783  c-0.761,3.379-3.367,11.438-3.964,13.271h-1.984v4.25l-10.59,17.643h10.707v-0.545c0-6.68,5.437-12.115,12.118-12.115  c6.681,0,12.116,5.436,12.116,12.115v0.545H72.825z M46.891,75.461c0.287-1.947,1.164-7.918,1.477-10.16h3.266  c0.312,2.242,1.189,8.213,1.477,10.16H46.891z"/>
<!-- Created by Randomhero from the Noun Project -->
</svg>