<svg xmlns="http://www.w3.org/2000/svg" xmlns:xlink="http://www.w3.org/1999/xlink" xml:space="preserve" version="1.1" height="64" width="64" style="shape-rendering:geometricPrecision;text-rendering:geometricPrecision;image-rendering:optimizeQuality;" viewBox="0 0 222.14 392.275" x="0px" y="0px" fill-rule="evenodd" clip-rule="evenodd">
<defs>
  <linearGradient id="gradient" x2="1" y2="1">
    <stop offset="0%" stop-color="#447799" />
    <stop offset="50%" stop-color="#224488" />
    <stop offset="100%" stop-color="#112266" />
  </linearGradient>
</defs>
<g>
<path fill="url(#gradient) #447799" d="M111.07 0c-61.34,0 -111.07,49.73 -111.07,111.07 0,70.61 56.28,148.74 102.39,198.93 4.68,5.08 12.68,5.08 17.36,0 46.11,-50.19 102.39,-128.32 102.39,-198.93 0,-61.34 -49.73,-111.07 -111.07,-111.07zm0 52.68c32.24,0 58.39,26.14 58.39,58.39 0,32.24 -26.15,58.38 -58.39,58.38 -32.24,0 -58.39,-26.14 -58.39,-58.38 0,-32.25 26.15,-58.39 58.39,-58.39z"/>
</g>
</svg>