<svg xmlns="http://www.w3.org/2000/svg" xmlns:xlink="http://www.w3.org/1999/xlink" width="32" height="32" version="1.1" x="0px" y="0px" viewBox="0 0 100 125" style="enable-background:new 0 0 100 100;" xml:space="preserve">
<g>
<rect x="41.1" y="36.5" width="3.8" height="16.7"/>
<polygon points="48.1,53.2 50,53.2 51.9,53.2 51.9,36.5 48.1,36.5  "/>
<polygon points="50.1,22.9 37.7,33.2 62.5,33.2  "/>
<rect x="55.2" y="36.5" width="3.8" height="16.7"/>
<path d="M50,5.2c-21.2,0-38.3,17.2-38.3,38.3c0,16.9,10.9,31.2,26.1,36.3l12.2,15l12.2-14.9c15.2-5.1,26.1-19.4,26.1-36.3   C88.3,22.4,71.2,5.2,50,5.2z M61.9,62.8H38.4c-0.9,0-1.7-0.7-1.7-1.7s0.7-1.7,1.7-1.7h23.5c0.9,0,1.7,0.7,1.7,1.7   S62.8,62.8,61.9,62.8z M71.5,62.6c-0.3,0.2-0.6,0.2-0.8,0.2c-0.6,0-1.1-0.3-1.4-0.8L66,56.6H50H34L30.8,62   c-0.3,0.5-0.9,0.8-1.4,0.8c-0.3,0-0.6-0.1-0.8-0.2c-0.8-0.5-1-1.5-0.6-2.3l3.7-6.3c0.3-0.5,0.8-0.8,1.4-0.8h4.7V36.5h-4.7   c-0.7,0-1.3-0.4-1.6-1.1c-0.2-0.7,0-1.4,0.5-1.8l16.9-14c0.4-0.3,0.8-0.4,1.2-0.4c0.4,0,0.7,0.1,1,0.4l16.9,14c0,0,0,0,0.1,0.1   c0,0,0.1,0.1,0.1,0.1c0,0,0.1,0.1,0.1,0.1c0,0,0.1,0.1,0.1,0.1c0,0,0.1,0.1,0.1,0.1c0,0,0,0.1,0.1,0.1c0,0.1,0,0.1,0.1,0.2   c0,0,0,0.1,0,0.1c0,0.1,0,0.1,0,0.2c0,0,0,0,0,0.1c0,0,0,0,0,0.1c0,0.1,0,0.1,0,0.2c0,0,0,0.1,0,0.1c0,0.1,0,0.1-0.1,0.2   c0,0,0,0.1-0.1,0.1c0,0,0,0.1-0.1,0.1c0,0-0.1,0.1-0.1,0.1c0,0,0,0,0,0.1c0,0,0,0,0,0c0,0.1-0.1,0.1-0.2,0.1c0,0-0.1,0.1-0.1,0.1   c-0.1,0-0.1,0.1-0.2,0.1c0,0-0.1,0-0.1,0.1c-0.1,0-0.1,0.1-0.2,0.1c0,0-0.1,0-0.1,0c-0.1,0-0.2,0-0.3,0c0,0,0,0-0.1,0c0,0,0,0,0,0   h-4.8v16.7h4.7c0.6,0,1.1,0.3,1.4,0.8l3.7,6.3C72.5,61.1,72.3,62.1,71.5,62.6z"/>
</g>
<!-- Created by Anton Gajdosik from the Noun Project -->
</svg>